<?xml version="1.0" standalone="no"?>
<!DOCTYPE svg PUBLIC "-//W3C//DTD SVG 20010904//EN"
 "http://www.w3.org/TR/2001/REC-SVG-20010904/DTD/svg10.dtd">
<svg version="1.0" xmlns="http://www.w3.org/2000/svg"
 width="900.000000pt" height="512.000000pt" viewBox="0 0 900.000000 512.000000"
 preserveAspectRatio="xMidYMid meet">

<g transform="translate(0.000000,512.000000) scale(0.100000,-0.100000)"
fill="#000000" stroke="none">
<path d="M5232 4793 c-14 -35 -75 -227 -137 -433 -26 -85 -49 -156 -50 -158
-2 -2 -50 3 -107 12 -469 69 -920 -17 -1271 -241 -295 -188 -535 -468 -703
-819 -64 -134 -83 -184 -68 -184 5 0 50 35 99 76 104 88 298 219 434 294 165
91 371 167 561 207 118 25 436 25 565 -1 90 -18 258 -68 285 -85 12 -8 4 -48
-54 -258 -113 -407 -115 -418 -116 -430 0 -7 6 -13 14 -13 7 0 108 44 222 98
115 54 436 201 714 327 278 125 513 236 524 245 15 15 16 21 6 40 -7 12 -167
257 -357 544 -191 286 -384 580 -431 651 -81 123 -105 155 -115 155 -3 0 -9
-12 -15 -27z"/>
<path d="M4030 2258 c-284 -132 -760 -350 -884 -405 -54 -24 -154 -71 -222
-103 -105 -50 -123 -61 -117 -77 4 -10 140 -218 303 -463 163 -245 364 -548
447 -674 l150 -228 16 43 c9 24 46 141 82 259 103 335 100 325 121 323 10 -1
80 -9 154 -17 564 -66 1069 92 1453 453 129 122 310 366 392 531 61 121 117
251 111 258 -3 2 -49 -33 -103 -78 -257 -214 -593 -397 -863 -469 -180 -49
-396 -63 -591 -41 -160 18 -379 85 -379 116 0 7 36 143 80 301 89 317 101 374
79 372 -8 0 -111 -46 -229 -101z"/>
</g>
</svg>
